<?xml version="1.0" encoding="UTF-8"?>
<!DOCTYPE svg PUBLIC "-//W3C//DTD SVG 1.1//EN" "http://www.w3.org/Graphics/SVG/1.1/DTD/svg11.dtd">
<svg xmlns="http://www.w3.org/2000/svg" version="1.1" width="595px" height="597px" style="shape-rendering:geometricPrecision; text-rendering:geometricPrecision; image-rendering:optimizeQuality; fill-rule:evenodd; clip-rule:evenodd" xmlns:xlink="http://www.w3.org/1999/xlink">
<g><path style="opacity:0.99" fill="#e65c02" d="M 339.5,255.5 C 339.336,258.187 339.503,260.854 340,263.5C 341.188,262.437 341.688,261.103 341.5,259.5C 343.26,249.487 340.927,240.654 334.5,233C 338.965,233.745 342.799,235.912 346,239.5C 348.698,254.528 346.031,268.528 338,281.5C 332.078,289.027 325.078,290.361 317,285.5C 315.385,283.989 315.385,282.656 317,281.5C 321.615,285.455 326.115,285.288 330.5,281C 317.217,282.358 312.717,276.525 317,263.5C 318.808,258.247 320.808,253.247 323,248.5C 321.333,249.5 319.667,250.5 318,251.5C 315.971,261.144 314.138,270.811 312.5,280.5C 312.5,283.167 312.5,285.833 312.5,288.5C 311.5,288.5 310.5,288.5 309.5,288.5C 309.5,289.833 309.5,291.167 309.5,292.5C 309.167,292.5 308.833,292.5 308.5,292.5C 305.615,292.806 302.948,292.473 300.5,291.5C 301.167,290.167 302.167,289.167 303.5,288.5C 305.196,288.315 306.529,287.481 307.5,286C 303.848,285.501 300.182,285.335 296.5,285.5C 294.883,284.411 294.05,282.744 294,280.5C 292.795,272.881 292.295,265.214 292.5,257.5C 292.823,253.774 292.489,250.107 291.5,246.5C 290.893,246.624 290.56,246.957 290.5,247.5C 289.391,249.554 288.391,251.721 287.5,254C 290.353,264.192 291.353,274.526 290.5,285C 293.523,288.364 296.19,292.031 298.5,296C 297.355,297.402 296.022,298.569 294.5,299.5C 292.219,299.923 290.552,299.256 289.5,297.5C 289.631,296.624 289.298,295.957 288.5,295.5C 281.3,293.8 276.467,289.466 274,282.5C 269.125,272.335 267.459,261.668 269,250.5C 270.566,249.939 271.899,250.606 273,252.5C 274.166,249.497 275.833,246.83 278,244.5C 278.4,240.607 277.567,236.94 275.5,233.5C 275.808,232.692 276.308,232.025 277,231.5C 279.802,232.33 282.635,233.163 285.5,234C 285.588,235.578 285.588,237.078 285.5,238.5C 290.167,235.5 294.833,232.5 299.5,229.5C 299.833,229.833 300.167,230.167 300.5,230.5C 298.978,233.192 297.811,235.859 297,238.5C 299.621,237.009 302.455,236.342 305.5,236.5C 307.924,236.808 310.257,236.474 312.5,235.5C 312.376,234.893 312.043,234.56 311.5,234.5C 302.44,228.098 304.107,225.932 316.5,228C 318.452,230.074 320.285,232.241 322,234.5C 324.333,233.5 326.667,232.5 329,231.5C 329.5,232 330,232.5 330.5,233C 328.5,235.667 326.5,238.333 324.5,241C 334.124,240.585 339.124,245.418 339.5,255.5 Z"/></g>
<g><path style="opacity:0.351" fill="#6c2b01" d="M 311.5,234.5 C 312.043,234.56 312.376,234.893 312.5,235.5C 310.257,236.474 307.924,236.808 305.5,236.5C 307.5,235.833 309.5,235.167 311.5,234.5 Z"/></g>
<g><path style="opacity:0.959" fill="#ce5202" d="M 270.5,234.5 C 271.552,234.351 272.552,234.517 273.5,235C 269.349,241.795 266.183,248.962 264,256.5C 260.109,251.056 257.609,245.056 256.5,238.5C 259.067,238.855 261.567,239.521 264,240.5C 266.652,239.015 268.818,237.015 270.5,234.5 Z"/></g>
<g><path style="opacity:0.94" fill="#c65005" d="M 252.5,239.5 C 253.289,239.783 253.956,240.283 254.5,241C 252.504,246.82 249.837,252.32 246.5,257.5C 243.979,255.74 243.146,253.407 244,250.5C 247.049,246.957 249.882,243.291 252.5,239.5 Z"/></g>
<g><path style="opacity:0.984" fill="#e25a01" d="M 253.5,250.5 C 256.652,249.959 259.152,250.959 261,253.5C 265.522,264.749 269.355,276.249 272.5,288C 269.717,290.488 266.384,291.821 262.5,292C 266.142,293.27 269.808,294.436 273.5,295.5C 271.5,295.833 269.5,296.167 267.5,296.5C 264.546,296.709 261.879,296.042 259.5,294.5C 255.781,287.062 252.614,279.395 250,271.5C 249.907,275.841 249.907,280.174 250,284.5C 247.667,283.167 245.333,281.833 243,280.5C 242.333,272.833 242.333,265.167 243,257.5C 247.244,262.942 249.577,261.942 250,254.5C 251.376,253.295 252.542,251.962 253.5,250.5 Z"/></g>
<g><path style="opacity:0.173" fill="#562202" d="M 290.5,247.5 C 290.56,246.957 290.893,246.624 291.5,246.5C 292.489,250.107 292.823,253.774 292.5,257.5C 291.833,254.167 291.167,250.833 290.5,247.5 Z"/></g>
<g><path style="opacity:0.255" fill="#7f3606" d="M 339.5,255.5 C 340.167,256.833 340.833,258.167 341.5,259.5C 341.688,261.103 341.188,262.437 340,263.5C 339.503,260.854 339.336,258.187 339.5,255.5 Z"/></g>
<g><path style="opacity:0.985" fill="#e45b00" d="M 337.5,304.5 C 337.5,305.5 337.5,306.5 337.5,307.5C 333.833,307.5 330.167,307.5 326.5,307.5C 322.333,307.154 320.5,304.82 321,300.5C 320.34,298.676 319.173,297.343 317.5,296.5C 317.5,295.833 317.167,295.5 316.5,295.5C 314.545,295.201 313.211,294.201 312.5,292.5C 320.329,290.034 328.329,289.201 336.5,290C 337.966,290.635 339.3,291.469 340.5,292.5C 341.224,287.142 342.057,281.809 343,276.5C 343.561,273.71 344.894,271.377 347,269.5C 354.256,275.589 355.589,282.922 351,291.5C 349.881,296.149 348.381,300.649 346.5,305C 343.064,305.408 340.23,304.241 338,301.5C 337.517,302.448 337.351,303.448 337.5,304.5 Z"/></g>
<g><path style="opacity:0.286" fill="#53311c" d="M 296.5,285.5 C 300.182,285.335 303.848,285.501 307.5,286C 306.529,287.481 305.196,288.315 303.5,288.5C 303.611,287.883 303.944,287.383 304.5,287C 301.635,286.817 298.969,286.317 296.5,285.5 Z"/></g>
<g><path style="opacity:1" fill="#9f4914" d="M 312.5,280.5 C 315.253,285.271 314.253,289.271 309.5,292.5C 309.5,291.167 309.5,289.833 309.5,288.5C 310.5,288.5 311.5,288.5 312.5,288.5C 312.5,285.833 312.5,283.167 312.5,280.5 Z"/></g>
<g><path style="opacity:0.561" fill="#934514" d="M 300.5,291.5 C 302.948,292.473 305.615,292.806 308.5,292.5C 305.696,293.638 302.696,293.805 299.5,293C 298.288,291.893 298.621,291.393 300.5,291.5 Z"/></g>
<g><path style="opacity:0.259" fill="#50280f" d="M 312.5,292.5 C 313.211,294.201 314.545,295.201 316.5,295.5C 316.5,295.833 316.5,296.167 316.5,296.5C 312.286,294.962 308.286,295.296 304.5,297.5C 304.953,296.542 305.619,295.708 306.5,295C 308.845,294.764 310.845,293.93 312.5,292.5 Z"/></g>
<g><path style="opacity:0.964" fill="#d75704" d="M 316.5,296.5 C 316.672,297.492 316.338,298.158 315.5,298.5C 314.624,298.369 313.957,298.702 313.5,299.5C 314.711,300.874 315.711,302.374 316.5,304C 316.355,304.772 316.022,305.439 315.5,306C 312.216,305.276 308.883,305.443 305.5,306.5C 303.145,306.448 301.812,305.281 301.5,303C 301.859,300.704 302.859,298.871 304.5,297.5C 308.286,295.296 312.286,294.962 316.5,296.5 Z"/></g>
<g><path style="opacity:0.008" fill="#3c1904" d="M 316.5,296.5 C 316.833,296.5 317.167,296.5 317.5,296.5C 317.719,297.675 317.386,298.675 316.5,299.5C 315.893,299.376 315.56,299.043 315.5,298.5C 316.338,298.158 316.672,297.492 316.5,296.5 Z"/></g>
<g><path style="opacity:0.882" fill="#a04a15" d="M 289.5,297.5 C 290.552,299.256 292.219,299.923 294.5,299.5C 290.79,301.759 286.79,302.426 282.5,301.5C 284.566,299.801 286.9,298.468 289.5,297.5 Z"/></g>
<g><path style="opacity:0.439" fill="#772f02" d="M 337.5,304.5 C 338.434,305.568 338.768,306.901 338.5,308.5C 334.298,308.817 330.298,308.483 326.5,307.5C 330.167,307.5 333.833,307.5 337.5,307.5C 337.5,306.5 337.5,305.5 337.5,304.5 Z"/></g>
<g><path style="opacity:0.282" fill="#562201" d="M 311.5,339.5 C 313.693,338.203 316.027,338.203 318.5,339.5C 318.376,340.107 318.043,340.44 317.5,340.5C 315.735,339.539 313.735,339.205 311.5,339.5 Z"/></g>
<g><path style="opacity:0.969" fill="#dc5802" d="M 218.5,338.5 C 224.176,338.334 229.843,338.501 235.5,339C 241.582,342.002 243.749,346.835 242,353.5C 241.215,355.286 240.049,356.786 238.5,358C 233.934,359.309 229.267,359.809 224.5,359.5C 224.5,362.833 224.5,366.167 224.5,369.5C 222.5,369.5 220.5,369.5 218.5,369.5C 218.5,359.167 218.5,348.833 218.5,338.5 Z M 224.5,344.5 C 227.518,344.335 230.518,344.502 233.5,345C 236.167,347.667 236.167,350.333 233.5,353C 230.649,354.289 227.649,354.789 224.5,354.5C 224.5,351.167 224.5,347.833 224.5,344.5 Z"/></g>
<g><path style="opacity:0.977" fill="#d85602" d="M 256.5,338.5 C 275.437,338.046 281.27,346.712 274,364.5C 268.252,369.466 261.752,370.633 254.5,368C 252,366.833 250.167,365 249,362.5C 246.657,355.599 247.157,348.932 250.5,342.5C 252.29,340.684 254.29,339.351 256.5,338.5 Z M 258.5,344.5 C 266.305,343.051 269.972,346.218 269.5,354C 270.434,359.991 267.934,363.158 262,363.5C 259.594,363.297 257.594,362.297 256,360.5C 253.457,354.505 254.29,349.172 258.5,344.5 Z"/></g>
<g><path style="opacity:0.974" fill="#d65502" d="M 311.5,339.5 C 313.735,339.205 315.735,339.539 317.5,340.5C 315.963,349.983 313.796,359.316 311,368.5C 309,369.833 307,369.833 305,368.5C 303.178,362.879 301.511,357.212 300,351.5C 298.213,357.489 296.046,363.323 293.5,369C 289.857,370.357 287.69,369.19 287,365.5C 284.687,356.582 282.853,347.582 281.5,338.5C 283.604,338.201 285.604,338.534 287.5,339.5C 289.062,345.474 290.562,351.474 292,357.5C 294.227,351.322 295.727,344.989 296.5,338.5C 298.467,338.261 300.301,338.594 302,339.5C 303.667,345.167 305.333,350.833 307,356.5C 308.817,350.914 310.317,345.247 311.5,339.5 Z"/></g>
<g><path style="opacity:0.967" fill="#db5803" d="M 346.5,341.5 C 341.749,343.141 336.749,344.141 331.5,344.5C 331.5,346.833 331.5,349.167 331.5,351.5C 335.833,351.5 340.167,351.5 344.5,351.5C 344.5,352.833 344.5,354.167 344.5,355.5C 339.968,355.182 335.634,355.515 331.5,356.5C 331.5,358.833 331.5,361.167 331.5,363.5C 336.5,363.5 341.5,363.5 346.5,363.5C 346.5,365.5 346.5,367.5 346.5,369.5C 339.5,369.5 332.5,369.5 325.5,369.5C 325.5,359.167 325.5,348.833 325.5,338.5C 332.5,338.5 339.5,338.5 346.5,338.5C 346.5,339.5 346.5,340.5 346.5,341.5 Z"/></g>
<g><path style="opacity:0.982" fill="#dc5803" d="M 370.5,339.5 C 372.582,339.472 374.416,340.139 376,341.5C 379.956,347.656 379.123,352.99 373.5,357.5C 375.414,361.323 376.747,365.323 377.5,369.5C 375.473,369.662 373.473,369.495 371.5,369C 369.843,365.653 368.01,362.487 366,359.5C 364.234,360.233 362.401,360.567 360.5,360.5C 360.664,363.187 360.497,365.854 360,368.5C 358.057,369.807 356.223,369.807 354.5,368.5C 354.5,358.833 354.5,349.167 354.5,339.5C 359.833,339.5 365.167,339.5 370.5,339.5 Z M 360.5,344.5 C 363.518,344.335 366.518,344.502 369.5,345C 372.167,347.667 372.167,350.333 369.5,353C 366.518,353.498 363.518,353.665 360.5,353.5C 360.5,350.5 360.5,347.5 360.5,344.5 Z"/></g>
<g><path style="opacity:0.345" fill="#712e01" d="M 370.5,339.5 C 365.167,339.5 359.833,339.5 354.5,339.5C 354.5,349.167 354.5,358.833 354.5,368.5C 353.506,358.681 353.173,348.681 353.5,338.5C 359.358,338.178 365.025,338.511 370.5,339.5 Z"/></g>
<g><path style="opacity:0.352" fill="#723004" d="M 346.5,341.5 C 347.404,342.209 347.737,343.209 347.5,344.5C 342.167,344.5 336.833,344.5 331.5,344.5C 336.749,344.141 341.749,343.141 346.5,341.5 Z"/></g>
<g><path style="opacity:0.592" fill="#a14001" d="M 344.5,351.5 C 345.451,352.919 345.784,354.585 345.5,356.5C 340.833,356.5 336.167,356.5 331.5,356.5C 335.634,355.515 339.968,355.182 344.5,355.5C 344.5,354.167 344.5,352.833 344.5,351.5 Z"/></g>
</svg>
