<svg version="1.1" id="Layer_1" xmlns="http://www.w3.org/2000/svg" xmlns:xlink="http://www.w3.org/1999/xlink" x="0px" y="0px"
	 width="100%" viewBox="0 0 595 597" enable-background="new 0 0 595 597" xml:space="preserve">
<path fill="#FFFFFF" opacity="1.000000" stroke="none" 
	d="
M336.000000,598.000000 
	C224.000000,598.000000 112.500000,598.000000 1.000000,598.000000 
	C1.000000,399.000000 1.000000,200.000000 1.000000,1.000000 
	C199.333328,1.000000 397.666656,1.000000 596.000000,1.000000 
	C596.000000,200.000000 596.000000,399.000000 596.000000,598.000000 
	C509.500000,598.000000 423.000000,598.000000 336.000000,598.000000 
M361.826447,370.975250 
	C365.600586,370.957001 369.374725,370.938782 373.980499,370.971191 
	C375.609833,370.971191 377.239197,370.971191 379.268860,370.971191 
	C377.698792,366.709076 376.311157,362.942200 375.563293,360.911987 
	C377.404724,356.354462 378.666931,353.230530 379.973877,349.156860 
	C379.982544,310.739319 379.929932,272.321564 380.089996,233.904663 
	C380.106964,229.845169 378.811096,228.881821 374.971710,228.921341 
	C357.511017,229.101089 340.047333,228.972565 322.585114,229.047729 
	C321.044983,229.054352 319.507721,229.732025 317.216553,229.724335 
	C313.514679,229.505173 309.812805,229.286011 305.160583,229.024750 
	C278.351654,229.016571 251.542328,229.074997 224.734192,228.923340 
	C221.016312,228.902283 219.907471,229.960709 219.923279,233.709839 
	C220.074295,269.509766 220.044662,305.310425 220.008575,342.032959 
	C220.008575,351.604156 220.008575,361.175323 220.008575,370.953705 
	C222.274872,370.953705 224.074585,370.953705 226.826981,370.982697 
	C234.871231,370.988464 242.916214,371.053253 250.959122,370.952301 
	C252.654312,370.931030 254.341873,370.302124 256.763855,370.056915 
	C257.499573,370.108032 258.235260,370.159119 259.254059,370.586639 
	C259.493256,370.815765 259.778442,370.930023 260.955963,370.988098 
	C262.935974,370.967224 264.916016,370.946350 267.845245,370.972534 
	C275.266083,370.958313 282.686920,370.944122 290.903961,370.989746 
	C292.232849,370.970184 293.561707,370.950653 295.827576,370.974823 
	C299.588013,370.960114 303.348450,370.945435 307.904388,370.989777 
	C309.233917,370.969604 310.563416,370.949463 312.838745,370.973846 
	C317.596100,370.960266 322.353485,370.946686 328.032623,370.991394 
	C334.651428,370.971985 341.270233,370.952576 348.801270,370.974518 
	C351.237213,370.959930 353.673187,370.945343 356.904755,370.989838 
	C358.232605,370.970703 359.560455,370.951538 361.826447,370.975250 
z"/>
<path fill="#E6E6E6" opacity="1.000000" stroke="none" 
	d="
M220.066895,341.110901 
	C220.044662,305.310425 220.074295,269.509766 219.923279,233.709839 
	C219.907471,229.960709 221.016312,228.902283 224.734192,228.923340 
	C251.542328,229.074997 278.351654,229.016571 305.598572,229.398590 
	C308.461578,232.174423 310.886627,234.576401 313.694580,237.357605 
	C307.807068,238.176590 302.993561,238.846191 298.265869,239.503830 
	C299.347260,236.786835 300.354065,234.257278 301.360870,231.727737 
	C301.056152,231.574173 300.751465,231.420593 300.446747,231.267029 
	C295.906982,234.189438 291.367188,237.111862 286.470276,240.264191 
	C287.144318,234.999649 284.150482,233.383133 277.318665,234.511261 
	C278.196045,237.928131 280.201599,241.551819 279.646393,244.727844 
	C279.065277,248.051941 276.023712,250.945938 273.902222,254.271484 
	C272.845886,253.142532 272.018921,252.258698 271.018280,251.189240 
	C270.626617,252.111023 270.107849,252.816299 270.044159,253.560532 
	C269.290497,262.365875 270.573181,270.924683 273.662689,279.165436 
	C275.885742,285.095001 277.780182,291.386169 284.093048,294.541046 
	C286.640961,295.814423 289.336212,296.792908 291.634491,298.064026 
	C289.093262,299.795837 286.881958,301.369171 283.823242,303.545441 
	C290.601410,304.222321 295.442413,302.052521 300.173523,297.963379 
	C299.148560,296.665253 298.102966,295.341034 297.052979,293.985718 
	C297.048615,293.954651 296.987091,293.942383 296.926941,293.702881 
	C296.675018,293.170502 296.406830,292.993256 295.924377,292.607391 
	C294.526001,289.951508 292.455170,287.720215 292.151672,285.270020 
	C291.101135,276.789429 291.253540,268.127716 289.757446,259.747498 
	C288.964355,255.304962 289.715240,252.480072 292.670288,249.680176 
	C293.452698,259.042328 293.923096,268.258057 295.060211,277.390747 
	C296.562134,289.453644 294.960968,287.797699 305.951569,288.075684 
	C306.127563,288.080109 306.293518,288.481659 306.515076,288.762390 
	C304.477112,290.411560 302.428680,292.069153 299.586487,294.369049 
	C301.793274,294.658081 303.025696,294.921936 304.265839,294.965515 
	C313.209412,295.279938 316.467529,290.972565 314.279053,282.354767 
	C313.751129,280.276093 314.377380,277.828156 314.777863,275.604980 
	C315.757935,270.164124 317.258453,264.796112 317.910309,259.322632 
	C318.618774,253.373398 318.850220,252.638809 324.027161,250.933426 
	C321.886230,256.791962 319.373169,263.037140 317.340485,269.434937 
	C315.765717,274.391266 317.416168,279.739624 321.485657,281.533417 
	C324.467712,282.847931 328.125793,282.628784 331.199310,283.053986 
	C327.360565,286.673828 322.689789,287.286255 317.140564,283.151733 
	C319.214386,288.586578 320.583984,289.620575 325.325897,289.992615 
	C333.957001,290.669861 338.271271,285.048431 342.109222,278.587891 
	C347.206024,270.008331 347.759827,260.311951 348.686340,250.820068 
	C349.023712,247.363525 348.092072,243.046951 346.108032,240.301849 
	C344.020081,237.412994 339.980682,235.934601 336.793945,233.839905 
	C343.077148,241.886368 343.934601,250.846786 342.610535,261.074310 
	C339.523956,252.413742 339.384003,241.744110 326.328949,242.990128 
	C328.073853,239.945038 329.605988,237.271286 331.803894,233.435669 
	C327.935547,234.606094 325.502167,235.342361 323.025116,236.091843 
	C321.292877,234.038284 319.631012,232.068161 317.969147,230.098038 
	C319.507721,229.732025 321.044983,229.054352 322.585114,229.047729 
	C340.047333,228.972565 357.511017,229.101089 374.971710,228.921341 
	C378.811096,228.881821 380.106964,229.845169 380.089996,233.904663 
	C379.929932,272.321564 379.982544,310.739319 379.630127,349.436646 
	C378.909393,345.124420 376.949127,341.830414 371.862457,340.541382 
	C366.123291,340.159668 360.599182,340.159668 355.006317,340.159668 
	C355.006317,346.795471 354.908752,352.898132 355.042816,358.995697 
	C355.123535,362.666321 355.564911,366.329010 355.911560,370.228821 
	C355.978943,370.462372 356.109131,370.930725 356.109131,370.930725 
	C353.673187,370.945343 351.237213,370.959930 348.392151,370.516602 
	C347.983063,368.803864 347.983063,367.549042 347.983063,365.818970 
	C342.694366,365.818970 337.952209,365.818970 333.385834,365.818970 
	C333.385834,362.932922 333.385834,360.542816 333.385834,357.964935 
	C337.089294,357.964935 340.429169,358.173676 343.717041,357.851501 
	C344.864685,357.739014 345.884064,356.317139 346.962036,355.493256 
	C345.781677,354.662781 344.659576,353.238922 343.409668,353.116119 
	C340.019897,352.783112 336.575928,353.001892 333.224426,353.001892 
	C333.224426,350.341614 333.224426,348.400177 333.224426,345.999054 
	C337.051270,345.999054 340.671661,346.042084 344.290588,345.988464 
	C349.123993,345.916809 349.123505,345.884613 347.167175,341.294983 
	C340.508087,341.294983 333.922485,341.294983 327.317322,341.294983 
	C327.182770,342.049011 327.024261,342.521545 327.025146,342.993744 
	C327.042633,352.306885 327.078613,361.619995 327.110840,370.933105 
	C322.353485,370.946686 317.596100,370.960266 312.539886,370.611938 
	C314.666870,360.662201 317.092743,351.074371 319.518372,341.487427 
	C314.422241,340.320221 312.279602,341.307922 311.825500,345.851318 
	C311.428650,349.821899 309.937592,353.683105 308.929932,357.592651 
	C306.936005,353.639587 306.005341,349.715607 304.918915,345.835205 
	C304.040466,342.697601 302.993866,339.585480 298.563385,341.334961 
	C296.924194,346.960785 295.263123,352.661621 293.352173,359.220062 
	C292.097229,354.082245 290.624084,349.896942 290.141846,345.600464 
	C289.563812,340.450836 286.881927,340.450409 282.796448,341.570374 
	C284.576111,349.872955 286.252808,357.962708 288.082977,366.017578 
	C288.469849,367.720459 289.418152,369.295807 290.107758,370.929901 
	C282.686920,370.944122 275.266083,370.958313 267.565125,370.627991 
	C272.436432,369.860260 275.947693,367.289154 276.968262,362.150543 
	C277.630432,358.816711 278.315125,355.268677 277.840759,351.982422 
	C277.229065,347.744934 276.219025,343.098053 270.851837,341.924408 
	C264.550354,340.546478 258.259857,339.706635 252.357010,343.398041 
	C252.132095,343.538696 252.121964,343.986053 251.943390,344.242981 
	C247.701691,350.346680 246.937027,364.803802 256.032959,369.953156 
	C254.341873,370.302124 252.654312,370.931030 250.959122,370.952301 
	C242.916214,371.053253 234.871231,370.988464 226.407120,370.514648 
	C225.987259,367.117218 225.987259,364.187836 225.987259,360.997772 
	C229.273682,360.997772 231.918350,361.130463 234.545258,360.970856 
	C240.464203,360.611176 244.269714,356.431030 243.999725,350.770172 
	C243.710648,344.708771 239.989990,341.031738 234.022003,341.010376 
	C229.370483,340.993713 224.718597,341.073822 220.066895,341.110901 
M303.150421,305.580963 
	C303.485107,306.048950 303.819763,306.516937 304.247620,307.678101 
	C305.153656,307.734863 306.059692,307.791595 307.775635,307.973053 
	C309.982239,307.707001 312.189514,307.446320 314.395172,307.172546 
	C315.485016,307.037262 316.571899,306.877899 317.660126,306.729431 
	C317.300964,305.586090 317.029419,304.404724 316.554993,303.311401 
	C316.173523,302.432312 315.546448,301.659821 315.028351,300.840027 
	C316.028473,300.585632 317.028564,300.331238 318.608612,299.828217 
	C318.765015,299.228485 318.921417,298.628754 319.763275,298.210052 
	C320.842377,300.502533 321.866180,302.823395 323.022278,305.076355 
	C323.668579,306.335846 324.277527,308.158020 325.345459,308.564148 
	C330.139130,310.387329 335.071014,311.084473 339.684570,308.625977 
	C339.438049,306.723175 339.235474,305.159546 338.899872,302.568970 
	C340.493561,304.055115 341.124817,304.870361 341.947205,305.372864 
	C346.397888,308.092194 347.727081,307.502441 349.240356,302.471558 
	C350.594666,297.969177 352.170258,293.532318 353.478271,289.017273 
	C354.894165,284.129669 356.097229,279.186218 351.570801,275.075745 
	C350.449158,274.057159 349.318176,273.048828 348.191528,272.035767 
	C347.126953,273.546722 345.456299,274.930359 345.107269,276.591644 
	C343.880341,282.431458 343.107666,288.366730 342.176086,294.181702 
	C334.460114,289.028015 326.237854,290.634155 317.279114,294.027710 
	C315.815216,294.667419 314.351318,295.307129 312.432098,296.019806 
	C312.432098,296.019806 311.996429,296.170898 311.316376,296.032990 
	C310.529022,296.325867 309.741669,296.618774 308.478088,297.065338 
	C308.308533,297.339813 308.138977,297.614319 307.354492,298.008026 
	C306.885315,298.331299 306.416107,298.654572 305.457214,299.126892 
	C305.286224,299.411560 305.115234,299.696198 304.311951,300.302856 
	C303.930664,301.868286 303.549377,303.433716 303.150421,305.580963 
M251.002960,254.234207 
	C252.422897,250.319595 253.842834,246.404984 255.262787,242.490356 
	C254.767792,242.244171 254.272797,241.998001 253.777802,241.751816 
	C251.651779,244.516464 249.508881,247.268326 247.403534,250.048615 
	C243.879318,254.702576 243.889404,254.710205 248.345688,258.739532 
	C249.253052,257.465637 250.166016,256.183929 251.595413,255.634399 
	C250.853333,258.050903 250.111252,260.467377 249.295151,263.124939 
	C247.602905,261.951172 246.109238,260.915100 243.996078,259.449371 
	C243.996078,266.046234 243.982559,271.684235 243.999939,277.322144 
	C244.016708,282.762390 245.634354,284.278687 251.894669,284.575378 
	C251.519775,280.893951 251.146835,277.231415 250.773880,273.568909 
	C252.864014,276.447357 253.757904,279.660553 255.047043,282.706451 
	C262.783630,300.986328 259.814545,297.761322 273.761047,297.951263 
	C273.946899,297.953796 274.135986,297.714142 274.547180,297.436646 
	C270.950745,296.267059 267.559723,295.164307 263.717163,293.914673 
	C267.680847,292.699707 270.862000,291.724609 274.017090,290.757477 
	C272.283478,285.268066 270.697449,280.343353 269.175232,275.399017 
	C267.605133,270.299164 266.564728,264.978027 264.461273,260.113159 
	C260.504578,250.962112 259.727295,250.881012 251.344849,255.328049 
	C251.297607,255.353134 251.111877,255.117157 251.002960,254.234207 
M265.074585,257.203461 
	C265.201355,257.311005 265.315460,257.444794 265.460358,257.514923 
	C265.531158,257.549194 265.726562,257.492584 265.751892,257.430634 
	C268.494690,250.722534 271.237671,244.014404 273.921967,237.282883 
	C274.037079,236.994202 273.604950,236.487305 273.144470,235.434250 
	C268.938568,239.873703 264.976318,244.875992 258.025421,239.886948 
	C257.715942,240.323044 257.406464,240.759140 257.096985,241.195236 
	C259.700195,246.296143 262.303436,251.397049 265.074585,257.203461 
z"/>
<path fill="#F06001" opacity="1.000000" stroke="none" 
	d="
M291.964417,297.905579 
	C289.336212,296.792908 286.640961,295.814423 284.093048,294.541046 
	C277.780182,291.386169 275.885742,285.095001 273.662689,279.165436 
	C270.573181,270.924683 269.290497,262.365875 270.044159,253.560532 
	C270.107849,252.816299 270.626617,252.111023 271.018280,251.189240 
	C272.018921,252.258698 272.845886,253.142532 273.902222,254.271484 
	C276.023712,250.945938 279.065277,248.051941 279.646393,244.727844 
	C280.201599,241.551819 278.196045,237.928131 277.318665,234.511261 
	C284.150482,233.383133 287.144318,234.999649 286.470276,240.264191 
	C291.367188,237.111862 295.906982,234.189438 300.446747,231.267029 
	C300.751465,231.420593 301.056152,231.574173 301.360870,231.727737 
	C300.354065,234.257278 299.347260,236.786835 298.265869,239.503830 
	C302.993561,238.846191 307.807068,238.176590 313.694580,237.357605 
	C310.886627,234.576401 308.461578,232.174423 306.073730,229.419647 
	C309.812805,229.286011 313.514679,229.505173 317.592834,229.911194 
	C319.631012,232.068161 321.292877,234.038284 323.025116,236.091843 
	C325.502167,235.342361 327.935547,234.606094 331.803894,233.435669 
	C329.605988,237.271286 328.073853,239.945038 326.328949,242.990128 
	C339.384003,241.744110 339.523956,252.413742 342.610535,261.074310 
	C343.934601,250.846786 343.077148,241.886368 336.793945,233.839905 
	C339.980682,235.934601 344.020081,237.412994 346.108032,240.301849 
	C348.092072,243.046951 349.023712,247.363525 348.686340,250.820068 
	C347.759827,260.311951 347.206024,270.008331 342.109222,278.587891 
	C338.271271,285.048431 333.957001,290.669861 325.325897,289.992615 
	C320.583984,289.620575 319.214386,288.586578 317.140564,283.151733 
	C322.689789,287.286255 327.360565,286.673828 331.199310,283.053986 
	C328.125793,282.628784 324.467712,282.847931 321.485657,281.533417 
	C317.416168,279.739624 315.765717,274.391266 317.340485,269.434937 
	C319.373169,263.037140 321.886230,256.791962 324.027161,250.933426 
	C318.850220,252.638809 318.618774,253.373398 317.910309,259.322632 
	C317.258453,264.796112 315.757935,270.164124 314.777863,275.604980 
	C314.377380,277.828156 313.751129,280.276093 314.279053,282.354767 
	C316.467529,290.972565 313.209412,295.279938 304.265839,294.965515 
	C303.025696,294.921936 301.793274,294.658081 299.586487,294.369049 
	C302.428680,292.069153 304.477112,290.411560 306.515076,288.762390 
	C306.293518,288.481659 306.127563,288.080109 305.951569,288.075684 
	C294.960968,287.797699 296.562134,289.453644 295.060211,277.390747 
	C293.923096,268.258057 293.452698,259.042328 292.670288,249.680176 
	C289.715240,252.480072 288.964355,255.304962 289.757446,259.747498 
	C291.253540,268.127716 291.101135,276.789429 292.151672,285.270020 
	C292.455170,287.720215 294.526001,289.951508 296.003906,292.834869 
	C296.399689,293.677612 296.654999,293.862885 296.987091,293.942383 
	C296.987091,293.942383 297.048615,293.954651 297.054932,294.298279 
	C296.110657,296.355286 295.160065,298.068665 294.209442,299.782013 
	C293.461090,299.156525 292.712769,298.531067 291.964417,297.905579 
z"/>
<path fill="#EF6000" opacity="1.000000" stroke="none" 
	d="
M290.505859,370.959839 
	C289.418152,369.295807 288.469849,367.720459 288.082977,366.017578 
	C286.252808,357.962708 284.576111,349.872955 282.796448,341.570374 
	C286.881927,340.450409 289.563812,340.450836 290.141846,345.600464 
	C290.624084,349.896942 292.097229,354.082245 293.352173,359.220062 
	C295.263123,352.661621 296.924194,346.960785 298.563385,341.334961 
	C302.993866,339.585480 304.040466,342.697601 304.918915,345.835205 
	C306.005341,349.715607 306.936005,353.639587 308.929932,357.592651 
	C309.937592,353.683105 311.428650,349.821899 311.825500,345.851318 
	C312.279602,341.307922 314.422241,340.320221 319.518372,341.487427 
	C317.092743,351.074371 314.666870,360.662201 312.066986,370.589661 
	C310.563416,370.949463 309.233917,370.969604 307.338440,370.623230 
	C304.968018,364.645905 303.163513,359.035095 301.156525,352.794586 
	C298.930328,359.238190 296.910461,365.084656 294.890594,370.931091 
	C293.561707,370.950653 292.232849,370.970184 290.505859,370.959839 
z"/>
<path fill="#EB5E00" opacity="1.000000" stroke="none" 
	d="
M256.398407,370.005035 
	C246.937027,364.803802 247.701691,350.346680 251.943390,344.242981 
	C252.121964,343.986053 252.132095,343.538696 252.357010,343.398041 
	C258.259857,339.706635 264.550354,340.546478 270.851837,341.924408 
	C276.219025,343.098053 277.229065,347.744934 277.840759,351.982422 
	C278.315125,355.268677 277.630432,358.816711 276.968262,362.150543 
	C275.947693,367.289154 272.436432,369.860260 267.090515,370.604492 
	C264.916016,370.946350 262.935974,370.967224 260.431091,370.713196 
	C259.594482,370.362244 259.282715,370.286224 258.970978,370.210205 
	C258.235260,370.159119 257.499573,370.108032 256.398407,370.005035 
M271.002045,358.133728 
	C271.002197,356.640808 271.026276,355.147400 270.998291,353.655029 
	C270.889648,347.855347 268.086731,345.425934 262.219574,346.025269 
	C257.336517,346.524017 255.976318,348.926880 255.984741,356.760895 
	C255.988632,360.389404 256.426025,363.921051 260.575562,364.919861 
	C266.167023,366.265778 269.234314,364.340698 271.002045,358.133728 
z"/>
<path fill="#EF6000" opacity="1.000000" stroke="none" 
	d="
M356.506958,370.960266 
	C356.109131,370.930725 355.978943,370.462372 355.960083,369.764221 
	C355.941193,359.842651 355.941193,350.619202 355.941193,340.923126 
	C361.842377,340.923126 366.959961,340.923126 372.077545,340.923126 
	C376.949127,341.830414 378.909393,345.124420 379.607758,349.911499 
	C378.666931,353.230530 377.404724,356.354462 375.563293,360.911987 
	C376.311157,362.942200 377.698792,366.709076 379.268860,370.971191 
	C377.239197,370.971191 375.609833,370.971191 373.406006,370.620911 
	C372.259094,369.289307 371.622040,368.339539 371.124817,367.321442 
	C368.169708,361.270599 368.180573,361.265289 362.445831,363.620422 
	C361.900299,366.181458 361.394318,368.556915 360.888306,370.932404 
	C359.560455,370.951538 358.232605,370.970703 356.506958,370.960266 
M372.947235,352.100891 
	C374.264648,346.106201 369.051636,344.843353 362.356934,346.643677 
	C362.356934,349.755707 362.356934,352.818054 362.356934,357.277100 
	C366.322601,355.571655 369.477142,354.215057 372.947235,352.100891 
z"/>
<path fill="#F06001" opacity="1.000000" stroke="none" 
	d="
M220.037720,341.571930 
	C224.718597,341.073822 229.370483,340.993713 234.022003,341.010376 
	C239.989990,341.031738 243.710648,344.708771 243.999725,350.770172 
	C244.269714,356.431030 240.464203,360.611176 234.545258,360.970856 
	C231.918350,361.130463 229.273682,360.997772 225.987259,360.997772 
	C225.987259,364.187836 225.987259,367.117218 225.930786,370.500153 
	C224.074585,370.953705 222.274872,370.953705 220.008575,370.953705 
	C220.008575,361.175323 220.008575,351.604156 220.037720,341.571930 
M236.041168,353.411285 
	C238.447754,346.583954 236.380585,345.091064 226.235916,346.485840 
	C226.235916,349.511322 226.235916,352.560181 226.235916,356.899353 
	C229.660645,355.830658 232.569778,354.922882 236.041168,353.411285 
z"/>
<path fill="#F06001" opacity="1.000000" stroke="none" 
	d="
M327.571716,370.962250 
	C327.078613,361.619995 327.042633,352.306885 327.025146,342.993744 
	C327.024261,342.521545 327.182770,342.049011 327.317322,341.294983 
	C333.922485,341.294983 340.508087,341.294983 347.167175,341.294983 
	C349.123505,345.884613 349.123993,345.916809 344.290588,345.988464 
	C340.671661,346.042084 337.051270,345.999054 333.224426,345.999054 
	C333.224426,348.400177 333.224426,350.341614 333.224426,353.001892 
	C336.575928,353.001892 340.019897,352.783112 343.409668,353.116119 
	C344.659576,353.238922 345.781677,354.662781 346.962036,355.493256 
	C345.884064,356.317139 344.864685,357.739014 343.717041,357.851501 
	C340.429169,358.173676 337.089294,357.964935 333.385834,357.964935 
	C333.385834,360.542816 333.385834,362.932922 333.385834,365.818970 
	C337.952209,365.818970 342.694366,365.818970 347.983063,365.818970 
	C347.983063,367.549042 347.983063,368.803864 347.936035,370.495911 
	C341.270233,370.952576 334.651428,370.971985 327.571716,370.962250 
z"/>
<path fill="#E6E6E6" opacity="1.000000" stroke="none" 
	d="
M295.359070,370.952942 
	C296.910461,365.084656 298.930328,359.238190 301.156525,352.794586 
	C303.163513,359.035095 304.968018,364.645905 306.940674,370.593689 
	C303.348450,370.945435 299.588013,370.960114 295.359070,370.952942 
z"/>
<path fill="#E6E6E6" opacity="1.000000" stroke="none" 
	d="
M361.357361,370.953827 
	C361.394318,368.556915 361.900299,366.181458 362.445831,363.620422 
	C368.180573,361.265289 368.169708,361.270599 371.124817,367.321442 
	C371.622040,368.339539 372.259094,369.289307 372.990204,370.595612 
	C369.374725,370.938782 365.600586,370.957001 361.357361,370.953827 
z"/>
<path fill="#E6E6E6" opacity="1.000000" stroke="none" 
	d="
M259.112518,370.398438 
	C259.282715,370.286224 259.594482,370.362244 260.007935,370.683838 
	C259.778442,370.930023 259.493256,370.815765 259.112518,370.398438 
z"/>
<path fill="#EF6000" opacity="1.000000" stroke="none" 
	d="
M250.990829,255.003067 
	C251.111877,255.117157 251.297607,255.353134 251.344849,255.328049 
	C259.727295,250.881012 260.504578,250.962112 264.461273,260.113159 
	C266.564728,264.978027 267.605133,270.299164 269.175232,275.399017 
	C270.697449,280.343353 272.283478,285.268066 274.017090,290.757477 
	C270.862000,291.724609 267.680847,292.699707 263.717163,293.914673 
	C267.559723,295.164307 270.950745,296.267059 274.547180,297.436646 
	C274.135986,297.714142 273.946899,297.953796 273.761047,297.951263 
	C259.814545,297.761322 262.783630,300.986328 255.047043,282.706451 
	C253.757904,279.660553 252.864014,276.447357 250.773880,273.568909 
	C251.146835,277.231415 251.519775,280.893951 251.894669,284.575378 
	C245.634354,284.278687 244.016708,282.762390 243.999939,277.322144 
	C243.982559,271.684235 243.996078,266.046234 243.996078,259.449371 
	C246.109238,260.915100 247.602905,261.951172 249.295151,263.124939 
	C250.111252,260.467377 250.853333,258.050903 251.316925,255.295044 
	C251.038422,254.955704 250.990829,255.003067 250.990829,255.003067 
z"/>
<path fill="#EF6000" opacity="1.000000" stroke="none" 
	d="
M318.001404,294.166809 
	C326.237854,290.634155 334.460114,289.028015 342.176086,294.181702 
	C343.107666,288.366730 343.880341,282.431458 345.107269,276.591644 
	C345.456299,274.930359 347.126953,273.546722 348.191528,272.035767 
	C349.318176,273.048828 350.449158,274.057159 351.570801,275.075745 
	C356.097229,279.186218 354.894165,284.129669 353.478271,289.017273 
	C352.170258,293.532318 350.594666,297.969177 349.240356,302.471558 
	C347.727081,307.502441 346.397888,308.092194 341.947205,305.372864 
	C341.124817,304.870361 340.493561,304.055115 338.899872,302.568970 
	C339.235474,305.159546 339.438049,306.723175 339.684570,308.625977 
	C335.071014,311.084473 330.139130,310.387329 325.345459,308.564148 
	C324.277527,308.158020 323.668579,306.335846 323.022278,305.076355 
	C321.866180,302.823395 320.842377,300.502533 319.161133,298.110718 
	C318.386230,298.021149 318.213501,298.030914 318.016205,298.016144 
	C317.991608,297.991608 317.942505,297.942444 317.964539,297.565918 
	C317.991516,296.181854 317.996460,295.174347 318.001404,294.166809 
z"/>
<path fill="#EB5E00" opacity="1.000000" stroke="none" 
	d="
M264.990631,256.850708 
	C262.303436,251.397049 259.700195,246.296143 257.096985,241.195236 
	C257.406464,240.759140 257.715942,240.323044 258.025421,239.886948 
	C264.976318,244.875992 268.938568,239.873703 273.144470,235.434250 
	C273.604950,236.487305 274.037079,236.994202 273.921967,237.282883 
	C271.237671,244.014404 268.494690,250.722534 265.751892,257.430634 
	C265.726562,257.492584 265.531158,257.549194 265.460358,257.514923 
	C265.315460,257.444794 265.201355,257.311005 264.990631,256.850708 
z"/>
<path fill="#EF6000" opacity="1.000000" stroke="none" 
	d="
M311.996429,296.170898 
	C311.996429,296.170898 312.432098,296.019806 312.977509,296.135559 
	C314.996124,296.815002 316.469299,297.378723 317.942505,297.942444 
	C317.942505,297.942444 317.991608,297.991608 317.997375,298.354309 
	C318.011658,299.170319 318.020172,299.623566 318.028687,300.076843 
	C317.028564,300.331238 316.028473,300.585632 315.028351,300.840027 
	C315.546448,301.659821 316.173523,302.432312 316.554993,303.311401 
	C317.029419,304.404724 317.300964,305.586090 317.660126,306.729431 
	C316.571899,306.877899 315.485016,307.037262 314.395172,307.172546 
	C312.189514,307.446320 309.982239,307.707001 307.168518,307.678711 
	C305.759094,307.251251 304.956787,307.118103 304.154449,306.984924 
	C303.819763,306.516937 303.485107,306.048950 303.516357,305.204041 
	C304.236298,303.211700 304.590240,301.596283 304.944214,299.980835 
	C305.115234,299.696198 305.286224,299.411560 306.013306,299.036011 
	C307.036072,298.593018 307.502747,298.240906 307.969421,297.888794 
	C308.138977,297.614319 308.308533,297.339813 308.900757,297.251343 
	C310.214447,297.015167 311.105438,296.593018 311.996429,296.170898 
M312.257019,300.809265 
	C312.373779,300.969360 312.490540,301.129486 312.607330,301.289581 
	C312.583313,301.066406 312.559296,300.843231 312.257019,300.809265 
z"/>
<path fill="#EB5E00" opacity="1.000000" stroke="none" 
	d="
M251.058701,254.928955 
	C250.166016,256.183929 249.253052,257.465637 248.345688,258.739532 
	C243.889404,254.710205 243.879318,254.702576 247.403534,250.048615 
	C249.508881,247.268326 251.651779,244.516464 253.777802,241.751816 
	C254.272797,241.998001 254.767792,242.244171 255.262787,242.490356 
	C253.842834,246.404984 252.422897,250.319595 250.996887,254.618637 
	C250.990829,255.003067 251.038422,254.955704 251.058701,254.928955 
z"/>
<path fill="#EB5E00" opacity="1.000000" stroke="none" 
	d="
M291.634491,298.064026 
	C292.712769,298.531067 293.461090,299.156525 294.209442,299.782013 
	C295.160065,298.068665 296.110657,296.355286 297.059326,294.329346 
	C298.102966,295.341034 299.148560,296.665253 300.173523,297.963379 
	C295.442413,302.052521 290.601410,304.222321 283.823242,303.545441 
	C286.881958,301.369171 289.093262,299.795837 291.634491,298.064026 
z"/>
<path fill="#702E02" opacity="1.000000" stroke="none" 
	d="
M371.862457,340.541382 
	C366.959961,340.923126 361.842377,340.923126 355.941193,340.923126 
	C355.941193,350.619202 355.941193,359.842651 355.892700,369.530701 
	C355.564911,366.329010 355.123535,362.666321 355.042816,358.995697 
	C354.908752,352.898132 355.006317,346.795471 355.006317,340.159668 
	C360.599182,340.159668 366.123291,340.159668 371.862457,340.541382 
z"/>
<path fill="#EB5E00" opacity="1.000000" stroke="none" 
	d="
M317.964539,297.565918 
	C316.469299,297.378723 314.996124,296.815002 313.205170,296.099060 
	C314.351318,295.307129 315.815216,294.667419 317.640259,294.097260 
	C317.996460,295.174347 317.991516,296.181854 317.964539,297.565918 
z"/>
<path fill="#EB5E00" opacity="1.000000" stroke="none" 
	d="
M304.628082,300.141846 
	C304.590240,301.596283 304.236298,303.211700 303.525208,304.913147 
	C303.549377,303.433716 303.930664,301.868286 304.628082,300.141846 
z"/>
<path fill="#EB5E00" opacity="1.000000" stroke="none" 
	d="
M311.656403,296.101929 
	C311.105438,296.593018 310.214447,297.015167 309.138916,297.174500 
	C309.741669,296.618774 310.529022,296.325867 311.656403,296.101929 
z"/>
<path fill="#EB5E00" opacity="1.000000" stroke="none" 
	d="
M304.201050,307.331512 
	C304.956787,307.118103 305.759094,307.251251 306.763580,307.616394 
	C306.059692,307.791595 305.153656,307.734863 304.201050,307.331512 
z"/>
<path fill="#EB5E00" opacity="1.000000" stroke="none" 
	d="
M318.318665,299.952515 
	C318.020172,299.623566 318.011658,299.170319 318.021973,298.378845 
	C318.213501,298.030914 318.386230,298.021149 318.818420,298.020203 
	C318.921417,298.628754 318.765015,299.228485 318.318665,299.952515 
z"/>
<path fill="#EB5E00" opacity="1.000000" stroke="none" 
	d="
M307.661957,297.948425 
	C307.502747,298.240906 307.036072,298.593018 306.258148,298.961487 
	C306.416107,298.654572 306.885315,298.331299 307.661957,297.948425 
z"/>
<path fill="#EB5E00" opacity="1.000000" stroke="none" 
	d="
M296.926941,293.702881 
	C296.654999,293.862885 296.399689,293.677612 296.141693,293.159119 
	C296.406830,292.993256 296.675018,293.170502 296.926941,293.702881 
z"/>
<path fill="#FFFFFF" opacity="1.000000" stroke="none" 
	d="
M270.998901,358.570923 
	C269.234314,364.340698 266.167023,366.265778 260.575562,364.919861 
	C256.426025,363.921051 255.988632,360.389404 255.984741,356.760895 
	C255.976318,348.926880 257.336517,346.524017 262.219574,346.025269 
	C268.086731,345.425934 270.889648,347.855347 270.998291,353.655029 
	C271.026276,355.147400 271.002197,356.640808 270.998901,358.570923 
z"/>
<path fill="#FFFFFF" opacity="1.000000" stroke="none" 
	d="
M372.789490,352.479675 
	C369.477142,354.215057 366.322601,355.571655 362.356934,357.277100 
	C362.356934,352.818054 362.356934,349.755707 362.356934,346.643677 
	C369.051636,344.843353 374.264648,346.106201 372.789490,352.479675 
z"/>
<path fill="#FFFFFF" opacity="1.000000" stroke="none" 
	d="
M235.760040,353.713196 
	C232.569778,354.922882 229.660645,355.830658 226.235916,356.899353 
	C226.235916,352.560181 226.235916,349.511322 226.235916,346.485840 
	C236.380585,345.091064 238.447754,346.583954 235.760040,353.713196 
z"/>
<path fill="#EB5E00" opacity="1.000000" stroke="none" 
	d="
M312.396179,300.714661 
	C312.559296,300.843231 312.583313,301.066406 312.607300,301.289581 
	C312.490540,301.129486 312.373779,300.969360 312.396179,300.714661 
z"/>
</svg>